<?xml version="1.0" encoding="UTF-8" standalone="no"?>
<svg
   viewBox="0 0 17796.999 7307.0001"
   id="svg543"
   stroke-linejoin="round"
   stroke-width="30"
   fill-rule="evenodd"
   height="280"
   width="680"
   version="1.2"
   throwIfNamespace="false">
     <defs id="defs8" class="ClipPathGroup" />
     <defs id="defs25" />
     <defs id="defs64" />
     <defs id="defs68" class="TextShapeIndex" />
     <defs id="defs100" class="EmbeddedBulletChars" />
     <defs id="defs102" class="TextEmbeddedBitmaps" />
      <g
     transform="translate(-1897,-3257.588)"
     class="com.sun.star.drawing.CustomShape"
     id="g124"><g
       id="id3">
         <rect
   class="BoundingBox"
   stroke="none"
   fill="none"
   x="7170"
   y="3247"
   width="5907"
   height="2007"
   id="rect109" />
         <path
   fill="#ffffff"
   stroke="none"
   d="M 10123,5200 H 7223 V 3300 h 5800 v 1900 z"
   id="path111" />
         <path
   fill="none"
   stroke="#000000"
   stroke-width="106"
   stroke-linejoin="round"
   d="M 10123,5200 H 7223 V 3300 h 5800 v 1900 z"
   id="path113" />
         <text
   class="TextShape"
   id="text121"><tspan
     class="TextParagraph"
     font-family="'Liberation Sans', sans-serif"
     font-size="635px"
     font-weight="400"
     id="tspan119"><tspan
       class="TextPosition"
       x="9156"
       y="4471"
       id="tspan117"><tspan
         fill="#000000"
         stroke="none"
         id="tspan115">LM317</tspan></tspan></tspan></text>
        </g></g><g
     transform="translate(-1897,-3257.588)"
     class="Group"
     id="C_in_symbol">
        <g
   class="com.sun.star.drawing.PolyLineShape"
   id="g131">
         <g
   id="id4">
          <rect
   class="BoundingBox"
   stroke="none"
   fill="none"
   x="5043"
   y="6547"
   width="1307"
   height="107"
   id="rect126" />
          <path
   fill="none"
   stroke="#000000"
   stroke-width="106"
   stroke-linejoin="round"
   d="m 5096,6600 h 600 600"
   id="path128" />
         </g>
        </g>
        <g
   class="com.sun.star.drawing.OpenBezierShape"
   id="g138">
         <g
   id="id5">
          <rect
   class="BoundingBox"
   stroke="none"
   fill="none"
   x="5043"
   y="6769"
   width="1307"
   height="285"
   id="rect133" />
          <path
   fill="none"
   stroke="#000000"
   stroke-width="106"
   stroke-linejoin="round"
   d="m 6296,7000 c -600,-400 -1200,0 -1200,0"
   id="path135" />
         </g>
        </g>
        <g
   class="com.sun.star.drawing.LineShape"
   id="g145">
         <g
   id="id6">
          <rect
   class="BoundingBox"
   stroke="none"
   fill="none"
   x="5643"
   y="5847"
   width="107"
   height="807"
   id="rect140" />
          <path
   fill="none"
   stroke="#000000"
   stroke-width="106"
   stroke-linejoin="round"
   d="M 5696,6600 V 5900"
   id="path142" />
         </g>
        </g>
        <g
   class="com.sun.star.drawing.LineShape"
   id="g152">
         <g
   id="id7">
          <rect
   class="BoundingBox"
   stroke="none"
   fill="none"
   x="5643"
   y="6747"
   width="107"
   height="807"
   id="rect147" />
          <path
   fill="none"
   stroke="#000000"
   stroke-width="106"
   stroke-linejoin="round"
   d="M 5696,7500 V 6800"
   id="path149" />
         </g>
        </g>
       </g><g
     transform="translate(-1897,-3257.588)"
     class="Group"
     id="C_out_symbol">
        <g
   class="com.sun.star.drawing.PolyLineShape"
   id="g161">
         <g
   id="id8">
          <rect
   class="BoundingBox"
   stroke="none"
   fill="none"
   x="15343"
   y="6547"
   width="1307"
   height="107"
   id="rect156" />
          <path
   fill="none"
   stroke="#000000"
   stroke-width="106"
   stroke-linejoin="round"
   d="m 15396,6600 h 600 600"
   id="path158" />
         </g>
        </g>
        <g
   class="com.sun.star.drawing.OpenBezierShape"
   id="g168">
         <g
   id="id9">
          <rect
   class="BoundingBox"
   stroke="none"
   fill="none"
   x="15343"
   y="6769"
   width="1307"
   height="285"
   id="rect163" />
          <path
   fill="none"
   stroke="#000000"
   stroke-width="106"
   stroke-linejoin="round"
   d="m 16596,7000 c -600,-400 -1200,0 -1200,0"
   id="path165" />
         </g>
        </g>
        <g
   class="com.sun.star.drawing.LineShape"
   id="g175">
         <g
   id="id10">
          <rect
   class="BoundingBox"
   stroke="none"
   fill="none"
   x="15943"
   y="5847"
   width="107"
   height="807"
   id="rect170" />
          <path
   fill="none"
   stroke="#000000"
   stroke-width="106"
   stroke-linejoin="round"
   d="M 15996,6600 V 5900"
   id="path172" />
         </g>
        </g>
        <g
   class="com.sun.star.drawing.LineShape"
   id="g182">
         <g
   id="id11">
          <rect
   class="BoundingBox"
   stroke="none"
   fill="none"
   x="15943"
   y="6747"
   width="107"
   height="807"
   id="rect177" />
          <path
   fill="none"
   stroke="#000000"
   stroke-width="106"
   stroke-linejoin="round"
   d="M 15996,7500 V 6800"
   id="path179" />
         </g>
        </g>
       </g><g
     transform="translate(-1897,-3257.588)"
     class="Group"
     id="Ground">
        <g
   class="com.sun.star.drawing.LineShape"
   id="g191">
         <g
   id="id12">
          <rect
   class="BoundingBox"
   stroke="none"
   fill="none"
   x="9343"
   y="9847"
   width="1507"
   height="107"
   id="rect186" />
          <path
   fill="none"
   stroke="#000000"
   stroke-width="106"
   stroke-linejoin="round"
   d="m 9396,9900 h 1400"
   id="path188" />
         </g>
        </g>
        <g
   class="com.sun.star.drawing.LineShape"
   id="g198">
         <g
   id="id13">
          <rect
   class="BoundingBox"
   stroke="none"
   fill="none"
   x="9543"
   y="10147"
   width="1107"
   height="107"
   id="rect193" />
          <path
   fill="none"
   stroke="#000000"
   stroke-width="106"
   stroke-linejoin="round"
   d="m 9596,10200 h 1000"
   id="path195" />
         </g>
        </g>
        <g
   class="com.sun.star.drawing.LineShape"
   id="g205">
         <g
   id="id14">
          <rect
   class="BoundingBox"
   stroke="none"
   fill="none"
   x="9893"
   y="10447"
   width="407"
   height="107"
   id="rect200" />
          <path
   fill="none"
   stroke="#000000"
   stroke-width="106"
   stroke-linejoin="round"
   d="m 9946,10500 h 300"
   id="path202" />
         </g>
        </g>
       </g><g
     transform="translate(-1897,-3257.588)"
     class="com.sun.star.drawing.LineShape"
     id="g214">
        <g
   id="id15">
         <rect
   class="BoundingBox"
   stroke="none"
   fill="none"
   x="10043"
   y="9347"
   width="107"
   height="607"
   id="rect209" />
         <path
   fill="none"
   stroke="#000000"
   stroke-width="106"
   stroke-linejoin="round"
   d="M 10096,9900 V 9400"
   id="path211" />
        </g>
       </g><g
     transform="translate(-1897,-3257.588)"
     class="com.sun.star.drawing.PolyLineShape"
     id="R_2_symbol">
        <g
   id="id16">
         <rect
   class="BoundingBox"
   stroke="none"
   fill="none"
   x="9843"
   y="6847"
   width="608"
   height="2207"
   id="rect216" />
         <path
   fill="none"
   stroke="#000000"
   stroke-width="106"
   stroke-linejoin="round"
   d="m 10096,6900 v 300 l -200,200 500,100 -500,300 500,200 -500,200 500,200 -500,300 200,100 v 200"
   id="path218" />
        </g>
       </g><g
     transform="translate(-1897,-3257.588)"
     class="com.sun.star.drawing.LineShape"
     id="g230">
        <g
   id="id17">
         <rect
   class="BoundingBox"
   stroke="none"
   fill="none"
   x="3896"
   y="4120"
   width="3454"
   height="361"
   id="rect223" />
         <path
   fill="none"
   stroke="#000000"
   stroke-width="106"
   stroke-linejoin="round"
   d="M 7296,4300 H 4231"
   id="path225" />
         <path
   fill="#000000"
   stroke="none"
   d="m 4251,4333 -9,32 -17,33 -22,29 -30,23 -32,16 -33,9 -33,5 -32,-5 -34,-9 -32,-16 -29,-23 -22,-29 -16,-33 -11,-32 -3,-34 3,-32 11,-33 16,-32 22,-29 29,-23 32,-16 34,-9 32,-4 33,4 33,9 32,16 30,23 22,29 17,32 9,33 4,32 z"
   id="path227" />
        </g>
       </g><g
     transform="translate(-1897,-3257.588)"
     class="com.sun.star.drawing.LineShape"
     id="g239">
        <g
   id="id18">
         <rect
   class="BoundingBox"
   stroke="none"
   fill="none"
   x="5516"
   y="4100"
   width="361"
   height="1954"
   id="rect232" />
         <path
   fill="none"
   stroke="#000000"
   stroke-width="106"
   stroke-linejoin="round"
   d="M 5696,6000 V 4435"
   id="path234" />
         <path
   fill="#000000"
   stroke="none"
   d="m 5663,4455 -32,-9 -33,-17 -29,-22 -23,-30 -16,-32 -9,-33 -4,-33 4,-32 9,-34 16,-32 23,-29 29,-22 33,-16 32,-11 34,-3 32,3 33,11 32,16 29,22 23,29 16,32 9,34 5,32 -5,33 -9,33 -16,32 -23,30 -29,22 -32,17 -33,9 -32,4 z"
   id="path236" />
        </g>
       </g><g
     transform="translate(-1897,-3257.588)"
     class="com.sun.star.drawing.LineShape"
     id="g246">
        <g
   id="id19">
         <rect
   class="BoundingBox"
   stroke="none"
   fill="none"
   x="10043"
   y="8747"
   width="107"
   height="807"
   id="rect241" />
         <path
   fill="none"
   stroke="#000000"
   stroke-width="106"
   stroke-linejoin="round"
   d="m 10096,8800 v 700"
   id="path243" />
        </g>
       </g><g
     transform="translate(-1897,-3257.588)"
     class="com.sun.star.drawing.LineShape"
     id="g253">
        <g
   id="id20">
         <rect
   class="BoundingBox"
   stroke="none"
   fill="none"
   x="10043"
   y="5147"
   width="107"
   height="2007"
   id="rect248" />
         <path
   fill="none"
   stroke="#000000"
   stroke-width="106"
   stroke-linejoin="round"
   d="M 10096,7100 V 5200"
   id="path250" />
        </g>
       </g><g
     transform="translate(-1897,-3257.588)"
     class="com.sun.star.drawing.PolyLineShape"
     id="R_1_symbol">
        <g
   id="id21">
         <rect
   class="BoundingBox"
   stroke="none"
   fill="none"
   x="13844"
   y="4347"
   width="608"
   height="2207"
   id="rect255" />
         <path
   fill="none"
   stroke="#000000"
   stroke-width="106"
   stroke-linejoin="round"
   d="m 14097,4400 v 300 l -200,200 500,100 -500,300 500,200 -500,200 500,200 -500,300 200,100 v 200"
   id="path257" />
        </g>
       </g><g
     transform="translate(-1897,-3257.588)"
     class="com.sun.star.drawing.LineShape"
     id="g269">
        <g
   id="id22">
         <rect
   class="BoundingBox"
   stroke="none"
   fill="none"
   x="13916"
   y="4112"
   width="361"
   height="654"
   id="rect262" />
         <path
   fill="none"
   stroke="#000000"
   stroke-width="106"
   stroke-linejoin="round"
   d="M 14096,4712 V 4447"
   id="path264" />
         <path
   fill="#000000"
   stroke="none"
   d="m 14063,4467 -32,-9 -33,-17 -29,-22 -23,-30 -16,-32 -9,-33 -4,-33 4,-32 9,-34 16,-32 23,-29 29,-22 33,-16 32,-11 34,-3 32,3 33,11 32,16 29,22 23,29 16,32 9,34 5,32 -5,33 -9,33 -16,32 -23,30 -29,22 -32,17 -33,9 -32,4 z"
   id="path266" />
        </g>
       </g><g
     transform="translate(-1897,-3257.588)"
     class="com.sun.star.drawing.LineShape"
     id="g278">
        <g
   id="id23">
         <rect
   class="BoundingBox"
   stroke="none"
   fill="none"
   x="15816"
   y="4127"
   width="361"
   height="1827"
   id="rect271" />
         <path
   fill="none"
   stroke="#000000"
   stroke-width="106"
   stroke-linejoin="round"
   d="M 15996,5900 V 4462"
   id="path273" />
         <path
   fill="#000000"
   stroke="none"
   d="m 15963,4482 -32,-9 -33,-17 -29,-22 -23,-30 -16,-32 -9,-33 -4,-33 4,-32 9,-34 16,-32 23,-29 29,-22 33,-16 32,-11 34,-3 32,3 33,11 32,16 29,22 23,29 16,32 9,34 5,32 -5,33 -9,33 -16,32 -23,30 -29,22 -32,17 -33,9 -32,4 z"
   id="path275" />
        </g>
       </g><g
     transform="translate(-1897,-3257.588)"
     class="com.sun.star.drawing.PolyLineShape"
     id="g287">
        <g
   id="id24">
         <rect
   class="BoundingBox"
   stroke="none"
   fill="none"
   x="9896"
   y="6447"
   width="4254"
   height="434"
   id="rect280" />
         <path
   fill="none"
   stroke="#000000"
   stroke-width="106"
   stroke-linejoin="round"
   d="m 14096,6500 v 200 h -3865"
   id="path282" />
         <path
   fill="#000000"
   stroke="none"
   d="m 10251,6733 -9,32 -17,33 -22,29 -30,23 -32,16 -33,9 -33,5 -32,-5 -34,-9 -32,-16 -29,-23 -22,-29 -16,-33 -11,-32 -3,-34 3,-32 11,-33 16,-32 22,-29 29,-23 32,-16 34,-9 32,-4 33,4 33,9 32,16 30,23 22,29 17,32 9,33 4,32 z"
   id="path284" />
        </g>
       </g><g
     transform="translate(-1897,-3257.588)"
     class="com.sun.star.drawing.PolyLineShape"
     id="g296">
        <g
   id="id25">
         <rect
   class="BoundingBox"
   stroke="none"
   fill="none"
   x="5643"
   y="7447"
   width="12454"
   height="2133"
   id="rect289" />
         <path
   fill="none"
   stroke="#000000"
   stroke-width="106"
   stroke-linejoin="round"
   d="M 17761,9397 5696,9300 V 7500"
   id="path291" />
         <path
   fill="#000000"
   stroke="none"
   d="m 17741,9364 10,-32 16,-32 23,-30 30,-22 33,-16 32,-9 33,-4 33,4 33,10 33,16 28,23 22,30 16,33 10,32 3,34 -3,32 -11,33 -16,31 -23,30 -29,22 -32,16 -34,9 -32,4 -34,-4 -32,-10 -32,-16 -30,-23 -22,-30 -16,-31 -9,-34 -4,-32 z"
   id="path293" />
        </g>
       </g><g
     transform="translate(-1897,-3257.588)"
     class="com.sun.star.drawing.LineShape"
     id="g303">
        <g
   id="id26">
         <rect
   class="BoundingBox"
   stroke="none"
   fill="none"
   x="15943"
   y="7447"
   width="107"
   height="2007"
   id="rect298" />
         <path
   fill="none"
   stroke="#000000"
   stroke-width="106"
   stroke-linejoin="round"
   d="M 15996,7500 V 9400"
   id="path300" />
        </g>
       </g><g
     transform="translate(-1897,-3257.588)"
     id="power_supply">
         <rect
   id="rect305"
   height="1706"
   width="1706"
   y="5877"
   x="2431"
   fill="none"
   stroke="none"
   class="BoundingBox" />
         <path
   id="path307"
   d="m 3283,5930 c 453,0 800,346 800,799 0,453 -347,800 -800,800 -453,0 -799,-347 -799,-800 0,-453 346,-799 799,-799 z"
   stroke="none"
   fill="#ffffff" />
         <path
   id="path309"
   d="m 3283,5930 c 453,0 800,346 800,799 0,453 -347,800 -800,800 -453,0 -799,-347 -799,-800 0,-453 346,-799 799,-799 z"
   stroke-linejoin="round"
   stroke-width="106"
   stroke="#000000"
   fill="none" />
         <text
   id="text323"
   class="TextShape"><tspan
     id="tspan315"
     font-weight="700"
     font-size="847px"
     font-family="'Liberation Sans', sans-serif"
     class="TextParagraph"><tspan
       id="tspan313"
       y="6552"
       x="3037"
       class="TextPosition"><tspan
         id="tspan311"
         stroke="none"
         fill="#000000">+</tspan></tspan></tspan><tspan
     id="tspan321"
     font-weight="700"
     font-size="847px"
     font-family="'Liberation Sans', sans-serif"
     class="TextParagraph"><tspan
       id="tspan319"
       y="7496"
       x="3142"
       class="TextPosition"><tspan
         id="tspan317"
         stroke="none"
         fill="#000000">-</tspan></tspan></tspan></text>
        </g><g
     transform="translate(-1897,-3257.588)"
     class="com.sun.star.drawing.PolyLineShape"
     id="g333">
        <g
   id="id28">
         <rect
   class="BoundingBox"
   stroke="none"
   fill="none"
   x="3243"
   y="4247"
   width="807"
   height="1707"
   id="rect328" />
         <path
   fill="none"
   stroke="#000000"
   stroke-width="106"
   stroke-linejoin="round"
   d="M 3296,5900 V 4300 h 700"
   id="path330" />
        </g>
       </g><g
     transform="translate(-1897,-3257.588)"
     class="Group"
     id="g356">
        <g
   class="com.sun.star.drawing.LineShape"
   id="g340">
         <g
   id="id29">
          <rect
   class="BoundingBox"
   stroke="none"
   fill="none"
   x="2543"
   y="8747"
   width="1507"
   height="107"
   id="rect335" />
          <path
   fill="none"
   stroke="#000000"
   stroke-width="106"
   stroke-linejoin="round"
   d="M 2596,8800 H 3996"
   id="path337" />
         </g>
        </g>
        <g
   class="com.sun.star.drawing.LineShape"
   id="g347">
         <g
   id="id30">
          <rect
   class="BoundingBox"
   stroke="none"
   fill="none"
   x="2743"
   y="9047"
   width="1107"
   height="107"
   id="rect342" />
          <path
   fill="none"
   stroke="#000000"
   stroke-width="106"
   stroke-linejoin="round"
   d="M 2796,9100 H 3796"
   id="path344" />
         </g>
        </g>
        <g
   class="com.sun.star.drawing.LineShape"
   id="g354">
         <g
   id="id31">
          <rect
   class="BoundingBox"
   stroke="none"
   fill="none"
   x="3093"
   y="9347"
   width="407"
   height="107"
   id="rect349" />
          <path
   fill="none"
   stroke="#000000"
   stroke-width="106"
   stroke-linejoin="round"
   d="m 3146,9400 h 300"
   id="path351" />
         </g>
        </g>
       </g><g
     transform="translate(-1897,-3257.588)"
     class="com.sun.star.drawing.LineShape"
     id="g363">
        <g
   id="id32">
         <rect
   class="BoundingBox"
   stroke="none"
   fill="none"
   x="3243"
   y="7447"
   width="107"
   height="1407"
   id="rect358" />
         <path
   fill="none"
   stroke="#000000"
   stroke-width="106"
   stroke-linejoin="round"
   d="M 3296,7500 V 8800"
   id="path360" />
        </g>
       </g><g
     transform="translate(-1897,-3257.588)"
     class="com.sun.star.drawing.CustomShape"
     id="voltimeter">
        <g
   id="id33">
         <rect
   class="BoundingBox"
   stroke="none"
   fill="none"
   x="17031"
   y="5877"
   width="1706"
   height="1706"
   id="rect365" />
         <path
   fill="#ffffff"
   stroke="none"
   d="m 17883,5930 c 453,0 800,346 800,799 0,453 -347,800 -800,800 -453,0 -799,-347 -799,-800 0,-453 346,-799 799,-799 z"
   id="path367" />
         <path
   fill="none"
   stroke="#000000"
   stroke-width="106"
   stroke-linejoin="round"
   d="m 17883,5930 c 453,0 800,346 800,799 0,453 -347,800 -800,800 -453,0 -799,-347 -799,-800 0,-453 346,-799 799,-799 z"
   id="path369" />
         <text
   class="TextShape"
   id="text377"><tspan
     class="TextParagraph"
     font-family="'Liberation Sans', sans-serif"
     font-size="847px"
     font-weight="700"
     id="tspan375"><tspan
       class="TextPosition"
       x="17602"
       y="7024"
       id="tspan373"><tspan
         fill="#000000"
         stroke="none"
         id="tspan371">V</tspan></tspan></tspan></text>
        </g>
       </g><g
     transform="translate(-1897,-3257.588)"
     class="com.sun.star.drawing.LineShape"
     id="g387">
        <g
   id="id34">
         <rect
   class="BoundingBox"
   stroke="none"
   fill="none"
   x="17843"
   y="4247"
   width="107"
   height="1707"
   id="rect382" />
         <path
   fill="none"
   stroke="#000000"
   stroke-width="106"
   stroke-linejoin="round"
   d="M 17896,4300 V 5900"
   id="path384" />
        </g>
       </g><g
     transform="translate(-1897,-3257.588)"
     class="com.sun.star.drawing.LineShape"
     id="g396">
        <g
   id="id35">
         <rect
   class="BoundingBox"
   stroke="none"
   fill="none"
   x="12943"
   y="4120"
   width="5154"
   height="361"
   id="rect389" />
         <path
   fill="none"
   stroke="#000000"
   stroke-width="106"
   stroke-linejoin="round"
   d="m 12996,4300 h 4765"
   id="path391" />
         <path
   fill="#000000"
   stroke="none"
   d="m 17741,4267 9,-32 17,-33 22,-29 30,-23 32,-16 33,-9 33,-4 32,4 34,9 32,16 29,23 22,29 16,33 11,32 3,34 -3,32 -11,33 -16,32 -22,29 -29,23 -32,16 -34,9 -32,5 -33,-5 -33,-9 -32,-16 -30,-23 -22,-29 -17,-32 -9,-33 -4,-32 z"
   id="path393" />
        </g>
       </g><g
     transform="translate(-1897,-3257.588)"
     class="com.sun.star.drawing.LineShape"
     id="g403">
        <g
   id="id36">
         <rect
   class="BoundingBox"
   stroke="none"
   fill="none"
   x="17843"
   y="7447"
   width="107"
   height="1907"
   id="rect398" />
         <path
   fill="none"
   stroke="#000000"
   stroke-width="106"
   stroke-linejoin="round"
   d="M 17896,7500 V 9300"
   id="path400" />
        </g>
       </g><g
     transform="translate(-1897,-3257.588)"
     class="com.sun.star.drawing.TextShape"
     id="g420">
        <g
   id="id37">
         <rect
   class="BoundingBox"
   stroke="none"
   fill="none"
   x="18196"
   y="3700"
   width="1498"
   height="1115"
   id="rect405" />
         <text
   class="TextShape"
   id="text417"><tspan
     class="TextParagraph"
     font-family="'Liberation Sans', sans-serif"
     font-size="368px"
     font-weight="700"
     id="tspan415"><tspan
       class="TextPosition"
       x="18446"
       y="4401"
       id="tspan409"><tspan
         font-size="635px"
         fill="#000000"
         stroke="none"
         id="tspan407">V</tspan></tspan><tspan
       class="TextPosition"
       y="4611"
       id="tspan413"><tspan
         fill="#000000"
         stroke="none"
         id="tspan411">out</tspan></tspan></tspan></text>
        </g>
       </g><g
     transform="translate(-1897,-3257.588)"
     class="com.sun.star.drawing.TextShape"
     id="g437">
        <g
   id="id38">
         <rect
   class="BoundingBox"
   stroke="none"
   fill="none"
   x="15897"
   y="5300"
   width="1532"
   height="1115"
   id="rect422" />
         <text
   class="TextShape"
   id="text434"><tspan
     class="TextParagraph"
     font-family="'Liberation Sans', sans-serif"
     font-size="368px"
     font-weight="700"
     id="tspan432"><tspan
       class="TextPosition"
       x="16147"
       y="6001"
       id="tspan426"><tspan
         font-size="635px"
         fill="#000000"
         stroke="none"
         id="tspan424">C</tspan></tspan><tspan
       class="TextPosition"
       y="6211"
       id="tspan430"><tspan
         fill="#000000"
         stroke="none"
         id="tspan428">out</tspan></tspan></tspan></text>
        </g>
       </g><g
     transform="translate(-1897,-3257.588)"
     class="com.sun.star.drawing.TextShape"
     id="g454">
        <g
   id="id39">
         <rect
   class="BoundingBox"
   stroke="none"
   fill="none"
   x="10698"
   y="7500"
   width="1163"
   height="1115"
   id="rect439" />
         <text
   class="TextShape"
   id="text451"><tspan
     class="TextParagraph"
     font-family="'Liberation Sans', sans-serif"
     font-size="368px"
     font-weight="700"
     id="tspan449"><tspan
       class="TextPosition"
       x="10948"
       y="8201"
       id="tspan443"><tspan
         font-size="635px"
         fill="#000000"
         stroke="none"
         id="tspan441">R</tspan></tspan><tspan
       class="TextPosition"
       y="8411"
       id="tspan447"><tspan
         fill="#000000"
         stroke="none"
         id="tspan445">2</tspan></tspan></tspan></text>
        </g>
       </g><g
     transform="translate(-1897,-3257.588)"
     class="com.sun.star.drawing.TextShape"
     id="g471">
        <g
   id="id40">
         <rect
   class="BoundingBox"
   stroke="none"
   fill="none"
   x="5898"
   y="5600"
   width="1286"
   height="1115"
   id="rect456" />
         <text
   class="TextShape"
   id="text468"><tspan
     class="TextParagraph"
     font-family="'Liberation Sans', sans-serif"
     font-size="368px"
     font-weight="700"
     id="tspan466"><tspan
       class="TextPosition"
       x="6148"
       y="6301"
       id="tspan460"><tspan
         font-size="635px"
         fill="#000000"
         stroke="none"
         id="tspan458">C</tspan></tspan><tspan
       class="TextPosition"
       y="6511"
       id="tspan464"><tspan
         fill="#000000"
         stroke="none"
         id="tspan462">in</tspan></tspan></tspan></text>
        </g>
       </g><g
     transform="translate(-1897,-3257.588)"
     class="com.sun.star.drawing.TextShape"
     id="g488">
        <g
   id="id41">
         <rect
   class="BoundingBox"
   stroke="none"
   fill="none"
   x="1897"
   y="3700"
   width="1498"
   height="1115"
   id="rect473" />
         <text
   class="TextShape"
   id="text485"><tspan
     class="TextParagraph"
     font-family="'Liberation Sans', sans-serif"
     font-size="368px"
     font-weight="700"
     id="tspan483"><tspan
       class="TextPosition"
       x="2147"
       y="4401"
       id="tspan477"><tspan
         font-size="635px"
         fill="#000000"
         stroke="none"
         id="tspan475">V</tspan></tspan><tspan
       class="TextPosition"
       y="4611"
       id="tspan481"><tspan
         fill="#000000"
         stroke="none"
         id="tspan479">in</tspan></tspan></tspan></text>
        </g>
       </g><g
     transform="translate(-1897,-3257.588)"
     class="com.sun.star.drawing.TextShape"
     id="g505">
        <g
   id="id42">
         <rect
   class="BoundingBox"
   stroke="none"
   fill="none"
   x="14398"
   y="4500"
   width="1163"
   height="1115"
   id="rect490" />
         <text
   class="TextShape"
   id="text502"><tspan
     class="TextParagraph"
     font-family="'Liberation Sans', sans-serif"
     font-size="368px"
     font-weight="700"
     id="tspan500"><tspan
       class="TextPosition"
       x="14648"
       y="5201"
       id="tspan494"><tspan
         font-size="635px"
         fill="#000000"
         stroke="none"
         id="tspan492">R</tspan></tspan><tspan
       class="TextPosition"
       y="5411"
       id="tspan498"><tspan
         fill="#000000"
         stroke="none"
         id="tspan496">1</tspan></tspan></tspan></text>
        </g>
       </g><g
     transform="translate(-1897,-3257.588)"
     class="com.sun.star.drawing.TextShape"
     id="g522">
        <g
   id="id43">
         <rect
   class="BoundingBox"
   stroke="none"
   fill="none"
   x="7998"
   y="5600"
   width="1418"
   height="1115"
   id="rect507" />
         <text
   class="TextShape"
   id="text519"><tspan
     class="TextParagraph"
     font-family="'Liberation Sans', sans-serif"
     font-size="368px"
     font-weight="700"
     id="tspan517"><tspan
       class="TextPosition"
       x="8248"
       y="6301"
       id="tspan511"><tspan
         font-size="635px"
         fill="#000000"
         stroke="none"
         id="tspan509">I</tspan></tspan><tspan
       class="TextPosition"
       x="8426"
       y="6511"
       id="tspan515"><tspan
         fill="#000000"
         stroke="none"
         id="tspan513">ADJ</tspan></tspan></tspan></text>
        </g>
       </g><g
     transform="translate(-1897,-3257.588)"
     class="com.sun.star.drawing.LineShape"
     id="g531">
        <g
   id="id44">
         <rect
   class="BoundingBox"
   stroke="none"
   fill="none"
   x="9206"
   y="5673"
   width="381"
   height="1628"
   id="rect524" />
         <path
   fill="none"
   stroke="#000000"
   stroke-width="53"
   stroke-linejoin="round"
   d="M 9396,5700 V 6755"
   id="path526" />
         <path
   fill="#000000"
   stroke="none"
   d="m 9396,7300 190,-570 h -380 z"
   id="path528" />
        </g>
       </g></svg>
